<mxfile host="app.diagrams.net" modified="2021-08-20T20:58:53.587Z" agent="5.0 (Macintosh; Intel Mac OS X 10_15_7) AppleWebKit/537.36 (KHTML, like Gecko) Chrome/92.0.4515.131 Safari/537.36" etag="qjPDDs9tfsQID4D_8mDJ" version="14.9.6" type="github">
  <diagram id="wZ5m5fd0sFRycb3nMDRE" name="Page-1">
    <mxGraphModel dx="1470" dy="687" grid="1" gridSize="10" guides="1" tooltips="1" connect="1" arrows="1" fold="1" page="1" pageScale="1" pageWidth="1100" pageHeight="850" math="0" shadow="0">
      <root>
        <mxCell id="0" />
        <mxCell id="1" parent="0" />
        <mxCell id="9LF7i5iPYAwtUj0q6y-a-23" value="internet&lt;br&gt;backbone" style="ellipse;whiteSpace=wrap;html=1;aspect=fixed;fillColor=#b1ddf0;strokeColor=none;" vertex="1" parent="1">
          <mxGeometry x="629" y="470" width="260" height="260" as="geometry" />
        </mxCell>
        <mxCell id="9LF7i5iPYAwtUj0q6y-a-22" value="Office &lt;br&gt;LAN" style="ellipse;whiteSpace=wrap;html=1;aspect=fixed;fillColor=#e1d5e7;strokeColor=none;" vertex="1" parent="1">
          <mxGeometry x="212" y="260" width="315" height="315" as="geometry" />
        </mxCell>
        <mxCell id="9LF7i5iPYAwtUj0q6y-a-3" value="&lt;meta charset=&quot;utf-8&quot;&gt;&lt;span style=&quot;color: rgb(23, 43, 77); font-size: 14px; font-style: normal; font-weight: 400; letter-spacing: normal; text-indent: 0px; text-transform: none; word-spacing: 0px; background-color: rgb(255, 255, 255); display: inline; float: none;&quot;&gt;All the web traffic flowing into&amp;nbsp;web application will be protected by Akamai.&amp;nbsp;&lt;/span&gt;" style="text;whiteSpace=wrap;html=1;" vertex="1" parent="1">
          <mxGeometry x="160" y="220" width="490" height="30" as="geometry" />
        </mxCell>
        <mxCell id="9LF7i5iPYAwtUj0q6y-a-4" value="" style="shape=image;html=1;verticalAlign=top;verticalLabelPosition=bottom;labelBackgroundColor=#ffffff;imageAspect=0;aspect=fixed;image=https://cdn4.iconfinder.com/data/icons/internet-security-flat-2/32/Internet_Security_Browser_webpage_website_web_page-128.png" vertex="1" parent="1">
          <mxGeometry x="345.5" y="280" width="48" height="48" as="geometry" />
        </mxCell>
        <mxCell id="9LF7i5iPYAwtUj0q6y-a-19" value="ISP&lt;br&gt;(Cox)" style="ellipse;whiteSpace=wrap;html=1;aspect=fixed;fillColor=#f8cecc;strokeColor=none;" vertex="1" parent="1">
          <mxGeometry x="520" y="390" width="160" height="160" as="geometry" />
        </mxCell>
        <mxCell id="9LF7i5iPYAwtUj0q6y-a-20" value="ISP X&lt;br&gt;(AT&amp;amp;T 4G)" style="ellipse;whiteSpace=wrap;html=1;aspect=fixed;fillColor=#fff2cc;strokeColor=none;" vertex="1" parent="1">
          <mxGeometry x="441" y="610.5" width="219" height="219" as="geometry" />
        </mxCell>
        <mxCell id="9LF7i5iPYAwtUj0q6y-a-24" value="ISP B" style="ellipse;whiteSpace=wrap;html=1;aspect=fixed;fillColor=#60a917;fontColor=#ffffff;strokeColor=none;" vertex="1" parent="1">
          <mxGeometry x="870" y="461" width="120" height="120" as="geometry" />
        </mxCell>
        <mxCell id="9LF7i5iPYAwtUj0q6y-a-25" value="AWS" style="ellipse;whiteSpace=wrap;html=1;aspect=fixed;fillColor=#fa6800;fontColor=#000000;strokeColor=none;" vertex="1" parent="1">
          <mxGeometry x="975" y="452" width="278" height="278" as="geometry" />
        </mxCell>
        <mxCell id="9LF7i5iPYAwtUj0q6y-a-47" value="" style="edgeStyle=none;rounded=0;orthogonalLoop=1;jettySize=auto;html=1;endArrow=none;endFill=0;shape=link;fillColor=#1ba1e2;strokeColor=#006EAF;" edge="1" parent="1" source="9LF7i5iPYAwtUj0q6y-a-27" target="9LF7i5iPYAwtUj0q6y-a-46">
          <mxGeometry relative="1" as="geometry" />
        </mxCell>
        <mxCell id="9LF7i5iPYAwtUj0q6y-a-27" value="" style="ellipse;whiteSpace=wrap;html=1;aspect=fixed;fillColor=#1ba1e2;fontColor=#ffffff;strokeColor=#006EAF;" vertex="1" parent="1">
          <mxGeometry x="860" y="536" width="30" height="30" as="geometry" />
        </mxCell>
        <mxCell id="9LF7i5iPYAwtUj0q6y-a-40" value="" style="rounded=0;orthogonalLoop=1;jettySize=auto;html=1;endArrow=none;endFill=0;shape=link;fillColor=#1ba1e2;strokeColor=#006EAF;exitX=0.5;exitY=0;exitDx=0;exitDy=0;" edge="1" parent="1" source="9LF7i5iPYAwtUj0q6y-a-30" target="9LF7i5iPYAwtUj0q6y-a-35">
          <mxGeometry relative="1" as="geometry">
            <mxPoint x="679.0266504821384" y="521.6846377120319" as="sourcePoint" />
          </mxGeometry>
        </mxCell>
        <mxCell id="9LF7i5iPYAwtUj0q6y-a-43" value="" style="edgeStyle=none;rounded=0;orthogonalLoop=1;jettySize=auto;html=1;endArrow=none;endFill=0;shape=link;fillColor=#1ba1e2;strokeColor=#006EAF;" edge="1" parent="1" source="9LF7i5iPYAwtUj0q6y-a-30" target="9LF7i5iPYAwtUj0q6y-a-42">
          <mxGeometry relative="1" as="geometry" />
        </mxCell>
        <mxCell id="9LF7i5iPYAwtUj0q6y-a-30" value="" style="ellipse;whiteSpace=wrap;html=1;aspect=fixed;fillColor=#1ba1e2;fontColor=#ffffff;strokeColor=#006EAF;" vertex="1" parent="1">
          <mxGeometry x="636" y="652" width="30" height="30" as="geometry" />
        </mxCell>
        <mxCell id="9LF7i5iPYAwtUj0q6y-a-31" value="ISP&lt;br&gt;Y" style="ellipse;whiteSpace=wrap;html=1;aspect=fixed;fillColor=#ffe6cc;strokeColor=none;" vertex="1" parent="1">
          <mxGeometry x="835" y="670" width="100" height="100" as="geometry" />
        </mxCell>
        <mxCell id="9LF7i5iPYAwtUj0q6y-a-45" value="" style="edgeStyle=none;rounded=0;orthogonalLoop=1;jettySize=auto;html=1;endArrow=none;endFill=0;shape=link;fillColor=#1ba1e2;strokeColor=#006EAF;" edge="1" parent="1" source="9LF7i5iPYAwtUj0q6y-a-32" target="9LF7i5iPYAwtUj0q6y-a-27">
          <mxGeometry relative="1" as="geometry" />
        </mxCell>
        <mxCell id="9LF7i5iPYAwtUj0q6y-a-53" value="" style="edgeStyle=none;shape=link;rounded=0;orthogonalLoop=1;jettySize=auto;html=1;endArrow=none;endFill=0;fillColor=#1ba1e2;strokeColor=#006EAF;" edge="1" parent="1" source="9LF7i5iPYAwtUj0q6y-a-32" target="9LF7i5iPYAwtUj0q6y-a-42">
          <mxGeometry relative="1" as="geometry" />
        </mxCell>
        <mxCell id="9LF7i5iPYAwtUj0q6y-a-55" value="" style="edgeStyle=none;shape=link;rounded=0;orthogonalLoop=1;jettySize=auto;html=1;endArrow=none;endFill=0;entryX=1;entryY=1;entryDx=0;entryDy=0;fillColor=#1ba1e2;strokeColor=#006EAF;" edge="1" parent="1" source="9LF7i5iPYAwtUj0q6y-a-32" target="9LF7i5iPYAwtUj0q6y-a-46">
          <mxGeometry relative="1" as="geometry" />
        </mxCell>
        <mxCell id="9LF7i5iPYAwtUj0q6y-a-32" value="" style="ellipse;whiteSpace=wrap;html=1;aspect=fixed;fillColor=#1ba1e2;fontColor=#ffffff;strokeColor=#006EAF;" vertex="1" parent="1">
          <mxGeometry x="830" y="670" width="30" height="30" as="geometry" />
        </mxCell>
        <mxCell id="9LF7i5iPYAwtUj0q6y-a-34" value="" style="ellipse;whiteSpace=wrap;html=1;aspect=fixed;strokeColor=#C73500;fillColor=#fa6800;fontColor=#000000;" vertex="1" parent="1">
          <mxGeometry x="980" y="536" width="30" height="30" as="geometry" />
        </mxCell>
        <mxCell id="9LF7i5iPYAwtUj0q6y-a-56" value="" style="edgeStyle=none;shape=link;rounded=0;orthogonalLoop=1;jettySize=auto;html=1;endArrow=none;endFill=0;entryX=0;entryY=0;entryDx=0;entryDy=0;fillColor=#1ba1e2;strokeColor=#006EAF;" edge="1" parent="1" source="9LF7i5iPYAwtUj0q6y-a-35" target="9LF7i5iPYAwtUj0q6y-a-27">
          <mxGeometry relative="1" as="geometry" />
        </mxCell>
        <mxCell id="9LF7i5iPYAwtUj0q6y-a-35" value="" style="ellipse;whiteSpace=wrap;html=1;aspect=fixed;fillColor=#1ba1e2;fontColor=#ffffff;strokeColor=#006EAF;" vertex="1" parent="1">
          <mxGeometry x="650" y="510" width="30" height="30" as="geometry" />
        </mxCell>
        <mxCell id="9LF7i5iPYAwtUj0q6y-a-36" value="" style="shape=image;html=1;verticalAlign=top;verticalLabelPosition=bottom;labelBackgroundColor=#ffffff;imageAspect=0;aspect=fixed;image=https://cdn4.iconfinder.com/data/icons/internet-security-flat-2/32/Internet_Security_Browser_webpage_website_web_page-128.png" vertex="1" parent="1">
          <mxGeometry x="345.5" y="518" width="48" height="48" as="geometry" />
        </mxCell>
        <mxCell id="9LF7i5iPYAwtUj0q6y-a-37" value="Home Wifi &lt;br&gt;Network" style="ellipse;whiteSpace=wrap;html=1;aspect=fixed;fillColor=#f0a30a;fontColor=#000000;strokeColor=none;" vertex="1" parent="1">
          <mxGeometry x="542.5" y="265" width="125" height="125" as="geometry" />
        </mxCell>
        <mxCell id="9LF7i5iPYAwtUj0q6y-a-39" value="" style="shape=image;html=1;verticalAlign=top;verticalLabelPosition=bottom;labelBackgroundColor=#ffffff;imageAspect=0;aspect=fixed;image=https://cdn4.iconfinder.com/data/icons/internet-security-flat-2/32/Internet_Security_Browser_webpage_website_web_page-128.png" vertex="1" parent="1">
          <mxGeometry x="581" y="270" width="48" height="48" as="geometry" />
        </mxCell>
        <mxCell id="9LF7i5iPYAwtUj0q6y-a-44" value="" style="edgeStyle=none;rounded=0;orthogonalLoop=1;jettySize=auto;html=1;endArrow=none;endFill=0;shape=link;fillColor=#1ba1e2;strokeColor=#006EAF;" edge="1" parent="1" source="9LF7i5iPYAwtUj0q6y-a-42" target="9LF7i5iPYAwtUj0q6y-a-32">
          <mxGeometry relative="1" as="geometry" />
        </mxCell>
        <mxCell id="9LF7i5iPYAwtUj0q6y-a-42" value="" style="ellipse;whiteSpace=wrap;html=1;aspect=fixed;fillColor=#1ba1e2;fontColor=#ffffff;strokeColor=#006EAF;" vertex="1" parent="1">
          <mxGeometry x="730" y="705" width="30" height="30" as="geometry" />
        </mxCell>
        <mxCell id="9LF7i5iPYAwtUj0q6y-a-48" value="" style="edgeStyle=none;rounded=0;orthogonalLoop=1;jettySize=auto;html=1;endArrow=none;endFill=0;shape=link;fillColor=#1ba1e2;strokeColor=#006EAF;" edge="1" parent="1" source="9LF7i5iPYAwtUj0q6y-a-46" target="9LF7i5iPYAwtUj0q6y-a-35">
          <mxGeometry relative="1" as="geometry" />
        </mxCell>
        <mxCell id="9LF7i5iPYAwtUj0q6y-a-50" value="" style="edgeStyle=none;shape=link;rounded=0;orthogonalLoop=1;jettySize=auto;html=1;endArrow=none;endFill=0;entryX=1;entryY=0;entryDx=0;entryDy=0;fillColor=#1ba1e2;strokeColor=#006EAF;" edge="1" parent="1" source="9LF7i5iPYAwtUj0q6y-a-46" target="9LF7i5iPYAwtUj0q6y-a-30">
          <mxGeometry relative="1" as="geometry">
            <mxPoint x="721.4999999999998" y="655" as="targetPoint" />
          </mxGeometry>
        </mxCell>
        <mxCell id="9LF7i5iPYAwtUj0q6y-a-52" value="" style="edgeStyle=none;shape=link;rounded=0;orthogonalLoop=1;jettySize=auto;html=1;endArrow=none;endFill=0;entryX=0.714;entryY=0.076;entryDx=0;entryDy=0;fillColor=#1ba1e2;strokeColor=#006EAF;entryPerimeter=0;" edge="1" parent="1" source="9LF7i5iPYAwtUj0q6y-a-46" target="9LF7i5iPYAwtUj0q6y-a-42">
          <mxGeometry relative="1" as="geometry">
            <mxPoint x="721.4999999999998" y="640" as="targetPoint" />
          </mxGeometry>
        </mxCell>
        <mxCell id="9LF7i5iPYAwtUj0q6y-a-46" value="" style="ellipse;whiteSpace=wrap;html=1;aspect=fixed;fillColor=#1ba1e2;fontColor=#ffffff;strokeColor=#006EAF;" vertex="1" parent="1">
          <mxGeometry x="805" y="600" width="30" height="30" as="geometry" />
        </mxCell>
        <mxCell id="9LF7i5iPYAwtUj0q6y-a-57" value="" style="ellipse;whiteSpace=wrap;html=1;aspect=fixed;strokeColor=#9673a6;fillColor=#e1d5e7;" vertex="1" parent="1">
          <mxGeometry x="509" y="445" width="12" height="12" as="geometry" />
        </mxCell>
        <mxCell id="9LF7i5iPYAwtUj0q6y-a-60" value="" style="image;html=1;image=img/lib/clip_art/networking/Wireless_Router_128x128.png;fillColor=none;" vertex="1" parent="1">
          <mxGeometry x="600" y="380" width="10" height="10" as="geometry" />
        </mxCell>
        <mxCell id="9LF7i5iPYAwtUj0q6y-a-61" value="" style="image;html=1;image=img/lib/clip_art/networking/Modem_128x128.png;fillColor=none;" vertex="1" parent="1">
          <mxGeometry x="600" y="390" width="10" height="10" as="geometry" />
        </mxCell>
        <mxCell id="9LF7i5iPYAwtUj0q6y-a-63" value="" style="ellipse;whiteSpace=wrap;html=1;aspect=fixed;strokeColor=#b85450;fillColor=#f8cecc;" vertex="1" parent="1">
          <mxGeometry x="522" y="448" width="12" height="12" as="geometry" />
        </mxCell>
        <mxCell id="9LF7i5iPYAwtUj0q6y-a-64" value="" style="shape=image;html=1;verticalAlign=top;verticalLabelPosition=bottom;labelBackgroundColor=#ffffff;imageAspect=0;aspect=fixed;image=https://cdn4.iconfinder.com/data/icons/internet-security-flat-2/32/Internet_Security_Browser_webpage_website_web_page-128.png" vertex="1" parent="1">
          <mxGeometry x="345.5" y="696" width="48" height="48" as="geometry" />
        </mxCell>
        <mxCell id="9LF7i5iPYAwtUj0q6y-a-65" value="" style="ellipse;whiteSpace=wrap;html=1;aspect=fixed;strokeColor=#b85450;fillColor=#f8cecc;" vertex="1" parent="1">
          <mxGeometry x="644" y="506" width="12" height="12" as="geometry" />
        </mxCell>
      </root>
    </mxGraphModel>
  </diagram>
</mxfile>
